<?xml version="1.0" encoding="utf-8"?>
<!-- Generator: Adobe Illustrator 21.1.0, SVG Export Plug-In . SVG Version: 6.00 Build 0)  -->
<svg version="1.1" id="Layer_1" xmlns="http://www.w3.org/2000/svg" xmlns:xlink="http://www.w3.org/1999/xlink" x="0px" y="0px"
	 viewBox="0 0 492 155" style="enable-background:new 0 0 492 155;" xml:space="preserve">
<style type="text/css">
	.st0{fill:#FFFFFF;stroke:#333333;stroke-width:7;stroke-miterlimit:10;}
	.st1{fill:none;}
	.st2{fill:#333333;}
</style>
<circle class="st0" cx="80" cy="78" r="70.4"/>
<g>
	<rect x="89" y="43.3" class="st1" width="486" height="69.5"/>
	<path class="st2" d="M187.7,50.6c0.1,2.5-1.7,4.4-4.6,4.4c-2.5,0-4.3-2-4.3-4.4c0-2.5,1.9-4.5,4.5-4.5
		C186,46.1,187.7,48.1,187.7,50.6z M179.6,101.5V61.8h7.2v39.7H179.6z"/>
	<path class="st2" d="M198.8,72.5c0-4.1-0.1-7.5-0.3-10.7h6.4l0.4,6.6h0.2c2-3.8,6.6-7.5,13.1-7.5c5.5,0,14,3.3,14,16.9v23.7h-7.2
		V78.6c0-6.4-2.4-11.7-9.2-11.7c-4.8,0-8.4,3.4-9.7,7.4c-0.3,0.9-0.5,2.1-0.5,3.4v23.9h-7.2V72.5z"/>
	<path class="st2" d="M245.1,101.5V67.3h-5.6v-5.5h5.6v-1.7c0-5.5,1.9-10.4,5.6-13.7c3.1-2.6,7.2-4,12.7-4c4.6,0,8.9,1,11.9,2.6
		v56.5h-7.1V49c-1.2-0.7-3.1-1.1-5.9-1.1c-7.5,0-10,5.5-10,11.9v2h9.3v5.5h-9.3v34.2H245.1z"/>
	<path class="st2" d="M320.4,90.6c0,4.1,0.1,7.7,0.3,10.8h-6.4L314,95h-0.2c-1.9,3.2-6.1,7.4-13.1,7.4c-6.2,0-13.7-3.4-13.7-17.4
		V61.8h7.2v22c0,7.5,2.3,12.6,8.9,12.6c4.8,0,8.2-3.4,9.5-6.6c0.4-1.1,0.7-2.4,0.7-3.7V61.8h7.2v28.8H320.4z"/>
	<path class="st2" d="M336.4,82.9c0.2,9.8,6.4,13.8,13.6,13.8c5.2,0,8.3-0.9,11-2l1.2,5.2c-2.5,1.1-6.9,2.5-13.2,2.5
		c-12.2,0-19.5-8-19.5-20S336.6,61,348.1,61c13,0,16.4,11.4,16.4,18.7c0,1.5-0.2,2.6-0.2,3.4h-27.9V82.9z M357.6,77.8
		c0.1-4.6-1.9-11.7-10-11.7c-7.3,0-10.5,6.7-11.1,11.7H357.6z"/>
	<path class="st2" d="M373.5,72.5c0-4.1-0.1-7.5-0.3-10.7h6.4l0.4,6.6h0.2c2-3.8,6.6-7.5,13.1-7.5c5.5,0,14,3.3,14,16.9v23.7h-7.2
		V78.6c0-6.4-2.4-11.7-9.2-11.7c-4.8,0-8.4,3.4-9.7,7.4c-0.3,0.9-0.5,2.1-0.5,3.4v23.9h-7.2L373.5,72.5L373.5,72.5z"/>
	<path class="st2" d="M447.3,100c-1.9,1-6.1,2.3-11.4,2.3c-12,0-19.8-8.1-19.8-20.3s8.4-21.1,21.3-21.1c4.3,0,8,1.1,10,2l-1.6,5.6
		c-1.7-1-4.4-1.9-8.4-1.9c-9.1,0-14,6.7-14,15c0,9.2,5.9,14.8,13.8,14.8c4.1,0,6.8-1.1,8.9-2L447.3,100z"/>
	<path class="st2" d="M459.3,82.9c0.2,9.8,6.4,13.8,13.6,13.8c5.2,0,8.3-0.9,11-2l1.2,5.2c-2.5,1.1-6.9,2.5-13.2,2.5
		c-12.2,0-19.5-8-19.5-20S459.5,61,471,61c13,0,16.4,11.4,16.4,18.7c0,1.5-0.2,2.6-0.2,3.4h-27.9V82.9z M480.4,77.8
		c0.1-4.6-1.9-11.7-10-11.7c-7.3,0-10.5,6.7-11.1,11.7H480.4z"/>
</g>
<g>
	<rect x="-161" y="43.3" class="st1" width="486" height="69.5"/>
	<path class="st2" d="M40.4,101.5c0.2-2.6,0.3-7.5,0.3-12V43.2h12.5v22.9h0.2c2.4-3.4,6.6-5.7,12.1-5.7c9.6,0,16.6,8,16.6,20.3
		c0,14.4-9.2,21.6-18.4,21.6c-4.7,0-9.2-1.7-12.1-6.5h-0.2l-0.5,5.6H40.4V101.5z M53.2,84.4c0,0.8,0.1,1.6,0.2,2.2
		c0.8,3.4,3.7,5.9,7.3,5.9c5.3,0,8.6-4.1,8.6-11.3c0-6.2-2.8-11.2-8.6-11.2c-3.4,0-6.5,2.5-7.3,6.1c-0.2,0.7-0.2,1.5-0.2,2.3
		C53.2,78.4,53.2,84.4,53.2,84.4z"/>
	<path class="st2" d="M99.6,85.4c0.4,5.2,5.5,7.6,11.3,7.6c4.3,0,7.7-0.6,11.1-1.6l1.6,8.4c-4.1,1.6-9.1,2.5-14.5,2.5
		c-13.6,0-21.4-7.9-21.4-20.4c0-10.2,6.3-21.4,20.3-21.4c13,0,17.9,10.1,17.9,20c0,2.1-0.2,4-0.4,4.9H99.6z M114.3,76.9
		c0-3-1.3-8.1-7.1-8.1c-5.2,0-7.4,4.8-7.7,8.1H114.3z"/>
</g>
</svg>
