<svg id="Layer_1" xmlns="http://www.w3.org/2000/svg" viewBox="0 0 492 155"><style>.st0{stroke:#ccc;stroke-width:7;stroke-miterlimit:10}.st0,.st1{fill:none}.st2{fill:#ccc}</style><circle class="st0" cx="80" cy="78" r="70.4"/><path class="st1" d="M89 43.3h486v69.5H89z"/><path class="st2" d="M187.7 50.6c.1 2.5-1.7 4.4-4.6 4.4-2.5 0-4.3-2-4.3-4.4 0-2.5 1.9-4.5 4.5-4.5 2.7 0 4.4 2 4.4 4.5zm-8.1 50.9V61.8h7.2v39.7h-7.2zm19.2-29c0-4.1-.1-7.5-.3-10.7h6.4l.4 6.6h.2c2-3.8 6.6-7.5 13.1-7.5 5.5 0 14 3.3 14 16.9v23.7h-7.2V78.6c0-6.4-2.4-11.7-9.2-11.7-4.8 0-8.4 3.4-9.7 7.4-.3.9-.5 2.1-.5 3.4v23.9h-7.2V72.5zm46.3 29V67.3h-5.6v-5.5h5.6v-1.7c0-5.5 1.9-10.4 5.6-13.7 3.1-2.6 7.2-4 12.7-4 4.6 0 8.9 1 11.9 2.6v56.5h-7.1V49c-1.2-.7-3.1-1.1-5.9-1.1-7.5 0-10 5.5-10 11.9v2h9.3v5.5h-9.3v34.2h-7.2zm75.3-10.9c0 4.1.1 7.7.3 10.8h-6.4L314 95h-.2c-1.9 3.2-6.1 7.4-13.1 7.4-6.2 0-13.7-3.4-13.7-17.4V61.8h7.2v22c0 7.5 2.3 12.6 8.9 12.6 4.8 0 8.2-3.4 9.5-6.6.4-1.1.7-2.4.7-3.7V61.8h7.2v28.8h-.1zm16-7.7c.2 9.8 6.4 13.8 13.6 13.8 5.2 0 8.3-.9 11-2l1.2 5.2c-2.5 1.1-6.9 2.5-13.2 2.5-12.2 0-19.5-8-19.5-20S336.6 61 348.1 61c13 0 16.4 11.4 16.4 18.7 0 1.5-.2 2.6-.2 3.4h-27.9v-.2zm21.2-5.1c.1-4.6-1.9-11.7-10-11.7-7.3 0-10.5 6.7-11.1 11.7h21.1zm15.9-5.3c0-4.1-.1-7.5-.3-10.7h6.4l.4 6.6h.2c2-3.8 6.6-7.5 13.1-7.5 5.5 0 14 3.3 14 16.9v23.7h-7.2V78.6c0-6.4-2.4-11.7-9.2-11.7-4.8 0-8.4 3.4-9.7 7.4-.3.9-.5 2.1-.5 3.4v23.9h-7.2V72.5zm73.8 27.5c-1.9 1-6.1 2.3-11.4 2.3-12 0-19.8-8.1-19.8-20.3s8.4-21.1 21.3-21.1c4.3 0 8 1.1 10 2l-1.6 5.6c-1.7-1-4.4-1.9-8.4-1.9-9.1 0-14 6.7-14 15 0 9.2 5.9 14.8 13.8 14.8 4.1 0 6.8-1.1 8.9-2l1.2 5.6zm12-17.1c.2 9.8 6.4 13.8 13.6 13.8 5.2 0 8.3-.9 11-2l1.2 5.2c-2.5 1.1-6.9 2.5-13.2 2.5-12.2 0-19.5-8-19.5-20S459.5 61 471 61c13 0 16.4 11.4 16.4 18.7 0 1.5-.2 2.6-.2 3.4h-27.9v-.2zm21.1-5.1c.1-4.6-1.9-11.7-10-11.7-7.3 0-10.5 6.7-11.1 11.7h21.1z"/><path class="st1" d="M-161 43.3h486v69.5h-486z"/><path class="st2" d="M40.4 101.5c.2-2.6.3-7.5.3-12V43.2h12.5v22.9h.2c2.4-3.4 6.6-5.7 12.1-5.7 9.6 0 16.6 8 16.6 20.3 0 14.4-9.2 21.6-18.4 21.6-4.7 0-9.2-1.7-12.1-6.5h-.2l-.5 5.6H40.4v.1zm12.8-17.1c0 .8.1 1.6.2 2.2.8 3.4 3.7 5.9 7.3 5.9 5.3 0 8.6-4.1 8.6-11.3 0-6.2-2.8-11.2-8.6-11.2-3.4 0-6.5 2.5-7.3 6.1-.2.7-.2 1.5-.2 2.3v6zm46.4 1c.4 5.2 5.5 7.6 11.3 7.6 4.3 0 7.7-.6 11.1-1.6l1.6 8.4c-4.1 1.6-9.1 2.5-14.5 2.5-13.6 0-21.4-7.9-21.4-20.4 0-10.2 6.3-21.4 20.3-21.4 13 0 17.9 10.1 17.9 20 0 2.1-.2 4-.4 4.9H99.6zm14.7-8.5c0-3-1.3-8.1-7.1-8.1-5.2 0-7.4 4.8-7.7 8.1h14.8z"/></svg>